<?xml version="1.0" encoding="utf-8"?><svg viewBox="0 0 1600 203" xmlns="http://www.w3.org/2000/svg" xmlns:xlink="http://www.w3.org/1999/xlink"><style>:root>svg{display:none}:root>svg:target{display:block}</style><svg fill="none" viewBox="0 0 15 27" id="arow-d" xmlns="http://www.w3.org/2000/svg"><path d="M6.764 25.873a1 1 0 0 0 1.414 0l6.364-6.364a1 1 0 0 0-1.414-1.415L7.47 23.752l-5.657-5.657A1 1 0 1 0 .4 19.51l6.364 6.364zm1.707-.707V.834h-2v24.332h2z" fill="#FFBA00"/></svg><svg fill="none" viewBox="0 0 1600 203" id="header-bg" xmlns="http://www.w3.org/2000/svg"><path d="m1600 203-44.44-30.45c-44.45-30.45-133.34-91.35-222.23-98.138-88.89-6.534-177.77 40.41-266.66 40.6-88.892-.19-177.781-47.134-266.67-47.324-88.889.19-177.778 47.134-266.667 67.624-88.889 20.11-177.777 13.766-266.666-3.362-88.889-17.128-177.778-43.772-222.222-57.538L0 60.9V0h1600v203z" fill="#6D9773" fill-opacity=".1"/></svg><svg fill="none" viewBox="0 0 100 64" id="logo" xmlns="http://www.w3.org/2000/svg"><path d="M20 42V2" stroke="#BB8A52" stroke-width="3" stroke-linecap="round"/><path d="M32 38V6" stroke="#6D9773" stroke-width="3" stroke-linecap="round"/><path d="M44 39.5v-35" stroke="#FFBA00" stroke-width="3" stroke-linecap="round"/><path d="M56 34.5v-25" stroke="#6D9773" stroke-width="3" stroke-linecap="round"/><path d="M68 42V2" stroke="#BB8A52" stroke-width="3" stroke-linecap="round"/><path d="M80 40V4" stroke="#0C3E2E" stroke-width="3" stroke-linecap="round"/><path d="M4.497 60.195c-.658 0-1.235-.095-1.729-.286a4.032 4.032 0 0 1-1.235-.748 3.682 3.682 0 0 1-.76-.968l1.339-.91c.104.238.256.468.455.689.2.217.461.396.786.54.325.138.728.207 1.21.207.463 0 .842-.069 1.137-.208.295-.138.511-.32.65-.546a1.37 1.37 0 0 0 .208-.734c0-.33-.091-.583-.273-.76a1.456 1.456 0 0 0-.715-.377 4.343 4.343 0 0 0-.943-.124 223.556 223.556 0 0 1-.923-.026h-.123v-1.482h.598c.126-.004.227-.009.305-.013.494-.022.9-.136 1.216-.344.32-.208.481-.516.481-.923 0-.395-.15-.705-.449-.93-.294-.225-.686-.338-1.176-.338-.46 0-.865.102-1.216.305-.346.204-.608.445-.786.722l-1.099-1.118c.317-.386.746-.71 1.287-.975.546-.269 1.166-.403 1.86-.403.407 0 .803.054 1.189.163.386.104.732.264 1.04.48.308.217.552.495.734.832.182.338.273.741.273 1.21 0 .428-.082.825-.247 1.189a2.29 2.29 0 0 1-.676.884c.412.165.73.416.956.754.23.338.344.765.344 1.28 0 .607-.164 1.131-.494 1.573-.329.442-.775.785-1.339 1.027-.559.239-1.187.358-1.885.358zm8.32 0c-.711 0-1.335-.154-1.873-.462a3.287 3.287 0 0 1-1.26-1.28c-.3-.546-.45-1.174-.45-1.885 0-.767.148-1.432.443-1.995a3.229 3.229 0 0 1 1.228-1.32c.525-.312 1.131-.468 1.82-.468.728 0 1.346.171 1.853.514.511.337.89.816 1.137 1.436s.34 1.35.28 2.19H14.44v-.572c-.004-.762-.138-1.319-.403-1.67-.264-.351-.68-.526-1.248-.526-.641 0-1.118.199-1.43.598-.312.394-.468.972-.468 1.735 0 .71.156 1.261.468 1.651.312.39.767.585 1.365.585.386 0 .718-.084.995-.254a1.69 1.69 0 0 0 .65-.747l1.547.468a3.135 3.135 0 0 1-1.248 1.476 3.414 3.414 0 0 1-1.853.526zm-2.419-3.27v-1.182h4.83v1.182h-4.83zM16.795 60v-1.313c.256.048.453.043.592-.013a.603.603 0 0 0 .312-.338c.069-.165.13-.383.182-.657.069-.385.13-.83.182-1.332.056-.503.104-1.04.143-1.612.043-.572.082-1.157.117-1.755h5.167V60h-1.56v-5.551H19.7a104.105 104.105 0 0 1-.175 2.002 27.749 27.749 0 0 1-.24 1.827c-.1.507-.243.907-.43 1.202a1.22 1.22 0 0 1-.766.566c-.33.086-.76.071-1.294-.046zm11.713.195c-.71 0-1.335-.154-1.872-.462a3.286 3.286 0 0 1-1.261-1.28c-.3-.546-.449-1.174-.449-1.885 0-.767.148-1.432.442-1.995a3.228 3.228 0 0 1 1.229-1.32c.524-.312 1.13-.468 1.82-.468.728 0 1.345.171 1.852.514.512.337.89.816 1.138 1.436.247.62.34 1.35.28 2.19h-1.554v-.572c-.005-.762-.139-1.319-.403-1.67-.265-.351-.68-.526-1.248-.526-.642 0-1.118.199-1.43.598-.312.394-.468.972-.468 1.735 0 .71.156 1.261.468 1.651.312.39.767.585 1.365.585.385 0 .717-.084.994-.254.282-.173.499-.422.65-.747l1.547.468a3.136 3.136 0 0 1-1.248 1.476 3.414 3.414 0 0 1-1.852.526zm-2.418-3.27v-1.182h4.83v1.182h-4.83zM33.124 60v-7.02h1.566v2.769h3.153V52.98h1.566V60h-1.566v-2.782H34.69V60h-1.566zm10.063.195c-.508 0-.936-.095-1.287-.286a2.023 2.023 0 0 1-.8-.773 2.149 2.149 0 0 1-.267-1.06c0-.338.057-.641.17-.91.112-.273.285-.507.52-.702.233-.2.537-.362.91-.487a8.63 8.63 0 0 1 .987-.247c.382-.074.794-.141 1.236-.202.446-.065.912-.134 1.397-.208l-.559.319c.004-.486-.104-.843-.325-1.073-.221-.23-.594-.345-1.118-.345-.316 0-.622.074-.916.222-.295.147-.501.4-.618.76l-1.43-.449a2.66 2.66 0 0 1 .988-1.43c.49-.36 1.148-.539 1.976-.539.624 0 1.172.102 1.645.306.476.203.83.537 1.059 1 .126.248.201.501.227.761.026.256.04.535.04.839V60H45.65v-1.521l.227.247c-.316.507-.686.88-1.111 1.118-.42.234-.947.351-1.58.351zm.312-1.248c.355 0 .658-.063.91-.189.25-.125.45-.279.598-.461a1.6 1.6 0 0 0 .305-.514 1.96 1.96 0 0 0 .137-.682c.013-.26.019-.47.019-.63l.481.143c-.472.073-.877.138-1.215.195-.339.056-.629.11-.872.162a5.545 5.545 0 0 0-.643.163c-.182.065-.336.14-.462.227a1.007 1.007 0 0 0-.292.299.78.78 0 0 0-.098.397c0 .173.044.327.13.461a.91.91 0 0 0 .377.312c.17.078.377.117.624.117zM51.303 60v-7.02H57.4V60h-1.566v-5.551H52.87V60h-1.567zm9.885.195c-.507 0-.936-.095-1.287-.286a2.023 2.023 0 0 1-.8-.773 2.15 2.15 0 0 1-.266-1.06c0-.338.057-.641.17-.91.112-.273.285-.507.52-.702.233-.2.537-.362.91-.487.281-.091.61-.174.987-.247.382-.074.793-.141 1.235-.202.447-.065.913-.134 1.398-.208l-.56.319c.005-.486-.103-.843-.324-1.073-.221-.23-.594-.345-1.118-.345-.316 0-.622.074-.917.222-.294.147-.5.4-.617.76l-1.43-.449a2.66 2.66 0 0 1 .988-1.43c.49-.36 1.148-.539 1.976-.539.624 0 1.172.102 1.644.306.477.203.83.537 1.06 1 .126.248.201.501.227.761.026.256.04.535.04.839V60h-1.372v-1.521l.227.247c-.316.507-.686.88-1.111 1.118-.42.234-.947.351-1.58.351zm.312-1.248c.356 0 .66-.063.91-.189.252-.125.451-.279.598-.461.152-.182.254-.353.306-.514.082-.199.128-.426.136-.682.013-.26.02-.47.02-.63l.48.143c-.471.073-.877.138-1.215.195-.338.056-.628.11-.87.162a5.556 5.556 0 0 0-.644.163 1.99 1.99 0 0 0-.462.227 1.009 1.009 0 0 0-.292.299.78.78 0 0 0-.098.397c0 .173.044.327.13.461a.91.91 0 0 0 .377.312c.17.078.377.117.624.117zM66.066 60v-1.313c.255.048.453.043.591-.013a.603.603 0 0 0 .312-.338c.07-.165.13-.383.182-.657.07-.385.13-.83.182-1.332.056-.503.104-1.04.143-1.612.043-.572.082-1.157.117-1.755h5.168V60H71.2v-5.551h-2.23a104.105 104.105 0 0 1-.175 2.002 27.749 27.749 0 0 1-.24 1.827c-.1.507-.243.907-.43 1.202a1.22 1.22 0 0 1-.767.566c-.33.086-.76.071-1.293-.046zm8.65-8.086v-1.437h1.567v1.437h-1.566zm0 8.086v-7.02h1.567V60h-1.566zm5.276 0v-5.629h-2.347V52.98h6.26v1.391h-2.347V60h-1.566zm8.518.195c-.685 0-1.259-.163-1.722-.487a2.984 2.984 0 0 1-1.047-1.326c-.234-.564-.35-1.194-.35-1.892 0-.706.116-1.339.35-1.898.234-.559.576-.999 1.027-1.32.455-.325 1.016-.487 1.684-.487.663 0 1.237.163 1.722.488.49.32.869.76 1.138 1.319.268.555.403 1.187.403 1.898 0 .702-.133 1.332-.397 1.892a3.227 3.227 0 0 1-1.118 1.326c-.48.325-1.044.487-1.69.487zm-3.386 2.925V52.98h1.384v4.927h.195v5.213h-1.58zm3.146-4.329c.407 0 .743-.102 1.007-.305.264-.204.46-.48.585-.826.13-.351.195-.741.195-1.17 0-.425-.065-.81-.195-1.157a1.78 1.78 0 0 0-.604-.832c-.273-.208-.62-.312-1.04-.312-.4 0-.724.097-.975.292-.252.191-.438.46-.56.806a3.722 3.722 0 0 0-.175 1.203c0 .455.059.856.176 1.203.12.346.31.617.565.812.26.19.6.286 1.02.286zm6.84 1.404c-.507 0-.936-.095-1.287-.286a2.023 2.023 0 0 1-.8-.773 2.149 2.149 0 0 1-.266-1.06c0-.338.057-.641.17-.91.112-.273.285-.507.52-.702.233-.2.537-.362.91-.487.281-.091.61-.174.987-.247.382-.074.793-.141 1.235-.202.447-.065.913-.134 1.398-.208l-.56.319c.005-.486-.103-.843-.324-1.073-.221-.23-.594-.345-1.118-.345-.316 0-.622.074-.917.222-.294.147-.5.4-.617.76l-1.43-.449c.173-.593.502-1.07.988-1.43.49-.36 1.148-.539 1.976-.539.624 0 1.172.102 1.644.306.477.203.83.537 1.06 1 .126.248.201.501.227.761.026.256.04.535.04.839V60h-1.372v-1.521l.227.247c-.316.507-.686.88-1.111 1.118-.42.234-.947.351-1.58.351zm.312-1.248c.356 0 .659-.063.91-.189.252-.125.451-.279.598-.461.152-.182.254-.353.306-.514.082-.199.128-.426.136-.682.013-.26.02-.47.02-.63l.48.143c-.472.073-.877.138-1.215.195-.338.056-.628.11-.87.162a5.545 5.545 0 0 0-.644.163 1.99 1.99 0 0 0-.462.227 1.007 1.007 0 0 0-.292.299.78.78 0 0 0-.098.397c0 .173.044.327.13.461a.91.91 0 0 0 .377.312c.17.078.377.117.624.117z" fill="#0C3E2E"/></svg><svg fill="none" viewBox="0 0 201 200" id="serv-1" xmlns="http://www.w3.org/2000/svg"><g clip-path="url(#da)"><path d="M66.516 105.469c1.803 1.391 3.48 2.927 5.166 4.457a73.99 73.99 0 0 0 2.89 2.428c2.645 2.144 5.234 4.353 7.829 6.559a473.813 473.813 0 0 0 7.625 6.356 337.533 337.533 0 0 1 4.288 3.604 259.886 259.886 0 0 0 4.038 3.354 407.069 407.069 0 0 1 6.563 5.493c.685.58 1.372 1.158 2.059 1.735l.692.581c.434.366.87.731 1.305 1.095 3.121 2.629 3.121 2.629 3.638 4.181a576.908 576.908 0 0 1-4.931 1.587l-1.409.462-1.365.431-1.253.403c-1.331.269-2.232.19-3.542-.148-.932-.684-.932-.684-1.83-1.563a68.466 68.466 0 0 0-4.127-3.637 207.48 207.48 0 0 1-4.98-4.175 260.547 260.547 0 0 0-5.944-4.967 250.695 250.695 0 0 1-3.675-3.09 134.872 134.872 0 0 0-6.006-4.834l-.188.916c-.71 3.166-1.578 5.538-3.89 7.849-1.131.69-2.032.879-3.344 1.001-.39-1.994-.488-3.943-.558-5.966l-.087-2.124a657.508 657.508 0 0 1-.126-3.32 454.306 454.306 0 0 0-.13-3.223l-.03-.991c-.12-2.654-.61-4.863-2.316-6.984-1.694-1.338-3.05-1.703-5.176-1.538-1.478.221-2.527.496-3.686 1.49-2.442 3.459-1.967 7.16-1.75 11.229l.079 1.567c.068 1.373.14 2.745.211 4.117.058 1.103.113 2.206.168 3.309l.202 4.019.04.788a324.379 324.379 0 0 0 .49 8.188c.056.777.119 1.553.182 2.33-.013 1.173-.166 1.759-.794 2.734l1.045-.272c1.6-.146 2.047.166 3.328 1.1l1.132.81 1.184.877 2.442 1.753 1.167.848a97.921 97.921 0 0 0 3.422 2.355l1.023.677c.752.495 1.506.989 2.26 1.481 1.137.743 2.272 1.49 3.407 2.236l1.13.734 1.049.691.95.622.68.541v.781c-.821.394-1.643.784-2.466 1.172l-1.387.659c-1.226.513-1.226.513-2.397.513l.732.911c1.044 1.578 1.68 3.029 1.611 4.948-1.147 3.298-3.355 6.22-5.294 9.101-.975 1.459-1.882 2.953-2.776 4.463l-.445.749-.873 1.473c-5.134 8.66-5.134 8.66-8.19 9.605-3.008.311-5.394.352-7.812-1.563-1.842-1.802-2.746-3.517-2.93-6.079.14-4.362 3.49-8.481 5.713-12.085a2751.89 2751.89 0 0 0 2.198-3.59 734.097 734.097 0 0 0 4.627-7.664l1.33-2.222-1.247.394a624.74 624.74 0 0 1-4.65 1.442c-.667.206-1.333.414-1.999.625-7.119 2.254-12.48 2.48-19.327-.972-4.146-2.343-8.178-5.815-9.704-10.475-.616-2.62-.185-5.034.989-7.42 1.786-2.759 4.152-4.916 6.58-7.091 7.344-6.592 12.438-13.898 15.084-23.47l.303-1.09c.193-.705.382-1.412.565-2.12 1.249-4.627 3.694-8.45 7.831-11.037 4.202-2.154 9.236-2.734 13.387-.114zm29.199-25.733c2.33 1.945 4.52 4.485 5.273 7.471.624 1.971 2.369 2.56 4.094 3.479 3.498 1.972 7.478 5.118 9.09 8.923.171 1.392.171 1.392 0 2.735-1.082 1.048-1.854 1.161-3.345 1.318-7.942-.384-16.338-5.708-21.551-11.438A47.84 47.84 0 0 1 88 90.625c1.801 4.946 6.678 9.217 10.938 12.109-1.489 3.341-4.498 5.351-7.813 6.641-4.532 1.525-9.751 1.329-14.062-.781-1.146-.686-2.133-1.453-3.125-2.344l-.716-.607c-3.26-2.969-4.88-6.784-5.241-11.109-.2-5.187 1.302-9.425 4.785-13.284 6.44-6.133 15.7-6.669 22.949-1.514zm-8.496 9.717.39.781-.39-.78z" fill="#000"/><path d="M166.906 150.391c1.245 3.008 1.396 5.743 1.172 8.984l-.391.781h8.985c.026 3.99.048 7.98.061 11.97.006 1.852.014 3.705.027 5.558.013 1.788.02 3.576.023 5.364.002.682.006 1.364.013 2.046.008.956.009 1.911.009 2.867l.013.853c-.011 1.712-.266 2.794-1.318 4.155-.924.462-1.5.447-2.531.46l-1.098.015-1.19.008-1.22.01c-.853.005-1.706.01-2.559.013-1.306.006-2.612.024-3.917.041l-2.484.01-1.186.02-1.105-.003-.971.007c-1.27-.275-1.696-.692-2.442-1.753a19.214 19.214 0 0 1-.178-3.082v-.936c.001-1.019.013-2.037.025-3.056l.007-2.122c.006-1.859.021-3.719.039-5.579.015-1.898.023-3.796.03-5.695.017-3.724.045-7.447.077-11.171h10.156c.127-4.556.127-4.556-.781-8.984 1.034-.571 1.521-.781 2.734-.781z" fill="#BB8A52"/><path d="M60.266 112.5c1.76.881 2.658 1.76 3.515 3.516.137 1.231.137 1.231.128 2.632 0 .533.002 1.065.003 1.598l-.004.849c0 1.503.04 3.005.074 4.507.042 1.904.073 3.806.051 5.711-.283 6.976-.283 6.976 2.223 13.214 2.184 1.953 4.622 3.258 7.266 4.485 1.942.97 3.65 2.244 5.396 3.527.635.45 1.271.899 1.909 1.346l.885.623c1.117.777 2.247 1.53 3.383 2.279a208.017 208.017 0 0 1 4.492 3.052l1.039.725c1.238 1.063 1.925 2.06 2.258 3.666.055 2.306-.314 3.514-1.913 5.193-1.292 1.028-2.753 1.071-4.34 1.048-1.871-.304-3.251-1.434-4.759-2.527l-1.071-.745a299.863 299.863 0 0 1-2.23-1.567 286.703 286.703 0 0 0-4.325-2.972 830.567 830.567 0 0 1-3.208-2.186 1236.033 1236.033 0 0 0-4.48-3.052c-11.464-7.782-11.464-7.782-11.979-9.863-.187-1.162-.268-2.293-.325-3.469l-.07-1.439-.072-1.548-.078-1.608a2112.61 2112.61 0 0 1-.158-3.372 1796.99 1796.99 0 0 0-.204-4.274 2465.11 2465.11 0 0 1-.157-3.325l-.112-2.327c-.066-1.441-.12-2.881-.169-4.322l-.056-1.498-.032-1.455-.035-1.296c.196-1.945.881-3.189 2.32-4.491 1.686-.812 2.996-.961 4.835-.635zm57.327 33.391.859-.006c2.361.062 4.073.725 6.047 1.991 1.006 1.569.955 3.057.61 4.858-1.97 4.364-5.942 7.109-9.985 9.351l-2.498 1.416-1.22.688a90.863 90.863 0 0 0-3 1.802l-.812.507c-.483.304-.965.612-1.443.924-.859.535-1.525.931-2.55.962-1.154-.633-1.953-1.561-2.808-2.539l-.543-.596c-1.313-1.471-1.313-1.471-1.313-2.358l-.826.341-1.078.44-1.071.439c-.93.342-.93.342-1.712.342-1.172-2.588-1.172-2.588-1.172-3.906l3.516-1.563c-.13-2.449-.258-4.898-.39-7.422a159.862 159.862 0 0 1 9.149-3.096 143.32 143.32 0 0 0 1.894-.601c3.45-1.116 6.701-1.956 10.346-1.974zM69.25 82.422c.31.896.456 1.383.128 2.289l-.421.738a15.507 15.507 0 0 0-1.367 3.272c-.463 1.273-.959 1.814-2.077 2.565-1.925 1.381-3.49 3.029-5.125 4.734-4.202 4.295-8.157 7.906-14.386 8.286-3.183-.021-6.05-.78-8.513-2.843-1.583-1.634-2.614-3.065-2.614-5.37.996.185 1.581.405 2.417 1.002 1.862.951 3.561.888 5.545.273 3.942-1.743 7.04-5.134 9.787-8.37 4.485-5.27 9.68-7.598 16.626-6.576z" fill="#000"/><path d="M132.171 175.038c.751.353.751.353 1.16 1.108.962 3.426 1.159 6.406-.019 9.792l1.221.122c1.514.268 1.514.268 2.564.805 1.577.774 3.136 1.107 4.847 1.477 1.201.349 2.081.761 3.087 1.502.318 1.245.318 1.245.391 2.344-1.814.693-3.519.954-5.444 1.049l-.882.049c-2.373.109-4.689-.043-7.056-.246-1.54-.075-3.031.015-4.562.148-3.133.244-7.301.439-10.181-1 .024-1.075.024-1.075.391-2.344 1.917-1.492 3.959-1.919 6.301-2.451a13.66 13.66 0 0 0 2.634-.943c1.292-.542 2.179-.614 3.565-.512 1.035-3.625.835-6.516 0-10.157 1.171-.781 1.171-.781 1.983-.743z" fill="#BB8A52"/><path d="M118.859 165.234c3.758-.216 7.395.438 10.329 2.915 1.196 1.18 1.718 2.055 1.927 3.726-.202 1.615-.709 2.629-1.977 3.662-1.739.47-3.221.215-4.83-.505-2.695-1.701-3.93-4.576-5.058-7.454-.27-1.343-.27-1.343-.391-2.344zm60.548-23.047c-.952 3.924-2.427 7.43-5.881 9.742-1.08.59-1.868.832-3.104.805-1.53-.51-2.182-.937-3.1-2.27-.489-1.465-.512-2.127-.025-3.589 1.693-2.565 3.871-3.656 6.812-4.395 1.782-.354 3.485-.35 5.298-.293zm-26.563-1.562c3.553-.205 7.38.365 10.156 2.734 1.294 1.238 2.075 2.135 2.173 3.931-.24 1.679-.58 2.324-1.782 3.491-1.261.631-2.112.547-3.516.391-3.122-1.114-4.31-3.51-5.674-6.318-.644-1.398-1.142-2.692-1.357-4.229zm-7.812 26.172c-.749 4.288-2.331 7.148-5.86 9.765-1.25.626-2.549.586-3.906.391-1.098-.701-1.761-1.179-2.344-2.344-.22-1.378-.238-2.332.487-3.553 1.871-2.312 3.925-3.303 6.715-4.161 1.634-.16 3.268-.127 4.908-.098z" fill="#0C3E2E"/><path d="M25.694 15.625c1.367.733 1.367.733 2.344 1.563v.78c-.326.01-.326.01-.66.018-3.328.208-5.321 1.5-7.519 3.962-.63.75-1.149 1.396-1.587 2.27l-.672-.228c-4.227-1.425-7.194-2.339-11.437-.552.075-1.622.29-2.237 1.416-3.443 1.218-1.04 2.487-1.13 4.053-1.245 1.463.218 1.463.218 2.905.562l1.463.34 1.1.27.83-1.074c2.056-2.47 4.534-3.68 7.764-3.223zM51.476 0c.92.567 1.307 1.063 1.953 1.953l-.772.116c-3.634.622-5.78 2.26-8.213 4.962l-.78 1.172c-1.26-.203-2.379-.549-3.565-1-2.577-.874-5.108-1.007-7.642.024l-.903.586c.108-1.551.3-2.236 1.318-3.443 1.43-1.191 2.546-1.35 4.382-1.336 1.8.175 3.515.731 5.237 1.263l.53-.642C45.54.672 47.423-.68 51.476 0zM47.57 25c.957.558 1.557 1.148 2.343 1.953v.39l-1.538.05c-2.677.31-4.557 1.627-6.322 3.622a53.18 53.18 0 0 0-1.905 2.579l-.674-.229c-4.226-1.425-7.193-2.339-11.436-.552.071-1.527.319-2.252 1.27-3.467 1.884-1.416 4.318-1.044 6.543-.83 1.086.192 2.07.45 3.125.781l.61-.855c2.12-2.445 4.624-4.03 7.983-3.442z" fill="#FFBA00"/><path d="M81.189 145.776c1.952 1.464 3.122 2.997 3.686 5.396.057 1.052.036 2.07 0 3.125-1.88 0-2.75-.673-4.224-1.709l-1.56-1.071-.81-.561c-.832-.568-1.671-1.12-2.516-1.667l-.816-.532c-.522-.339-1.045-.677-1.569-1.013-.61-.4-1.2-.827-1.786-1.26v-.781c2.995-1.114 6.747-1.622 9.595.073z" fill="#000"/><path d="M168.078 132.812c1.718 1.406 1.972 3.345 2.246 5.445.142 1.741.032 3.086-.683 4.712-.851 1-1.405 1.51-2.735 1.637-1.383-.084-2.126-.261-3.149-1.222-.65-2.124-.491-4.073.508-6.069a22.542 22.542 0 0 1 3.813-4.503zm-33.203 25.391c1.216 2.867 1.834 5.966.929 9.023-.343.645-.343.645-1.32 1.524-1.556.402-2.715.236-4.101-.562-.896-1.53-.946-2.789-.586-4.516.964-2.124 2.487-5.469 5.078-5.469z" fill="#0C3E2E"/><path d="M79.797 167.578a41.517 41.517 0 0 1 2.344 1.563c-.391 1.172-.391 1.172-1.068 1.591l-.872.379-.947.415-.995.422-.991.436c-2.43 1.054-2.43 1.054-3.33 1.054-1.172-2.588-1.172-2.588-1.172-3.907a195.7 195.7 0 0 1 2.417-1.196l1.36-.673c1.37-.5 1.903-.565 3.254-.084z" fill="#000"/></g><defs><clipPath id="da"><path fill="#fff" transform="translate(.5)" d="M0 0h200v200H0z"/></clipPath></defs></svg><svg fill="none" viewBox="0 0 201 200" id="serv-2" xmlns="http://www.w3.org/2000/svg"><g clip-path="url(#ea)"><path d="m163.057 157.117-1.171 1.563h1.562l-.391-1.563z" fill="#0C3E2E"/><path d="m131.417 175.086-2.344 1.953c-.05.283-2.686-.274-2.734 0h-.782l-.39-1.172a17.98 17.98 0 0 0-2.637.806l-.879.366-1.172-3.125h-.781l-1.562 3.125-1.172-1.172c-1.563 0-1.563 0-2.442.391l-.683.391-1.563-1.563-1.172 1.953c-.781-.781-.781-.781-1.513-1.098-.83-.074-.83-.074-1.709.488l-.684.61-.781-3.125h-.781l-.635.977-.537.976-.391-.781c-.781 0-.781 0-1.611.781l-.733.782-2.343-2.344-.391 2.344-1.563-1.953-2.343 1.953-.39-1.563-2.345 1.953c0-1.213-.21-1.7-.78-2.734l-1.808 1.807-.927.927-.782-1.953h-.78l-.782 1.563-1.953-1.563-1.953 1.953c-.44-1.382-.91-2.602-1.563-3.906l-1.953 3.516-1.562-.782c-.751.266-.751.266-1.465.733l-1.27.83-1.172-3.516h-.78l-.782 3.516-2.344-1.953-1.953 1.562-1.563-1.953-.732.781c-.735.871-.735.871-1.611.782l-.39-.782c-1.173 0-1.173 0-2.027.586l-.708.586-1.172-3.125h-.781l-.635.977-.537.976-.39-.781-2.735 1.953c0-1.021 0-1.021-1.172-2.734h-.781l-.391 1.953c-.537-.781-.537-.781-1.172-1.562h-.781c-.416.832-.895 1.314-1.563 1.953l-.39-1.563h-.782l-.78 1.953h-.782c-.146-1.147-.146-1.147-.39-2.343l-.782-.391a49.427 49.427 0 0 1-1.562 2.344h-.782l-.78-1.563h-.782l-.781 1.563-1.954-1.563-1.953 1.953c-.44-1.382-.91-2.602-1.562-3.906l-1.953 3.516-1.563-.782c-.75.266-.75.266-1.465.733l-1.27.83-1.171-3.516h-.781l-1.172 3.125a22.152 22.152 0 0 0-2.735-1.562l-1.953 1.562-.78-1.953h-.782l-.781 1.563-1.075-.464c-1.27-.318-1.27-.318-2.197.22l-.635.634-1.172-3.125h-.78l-.636.977-.537.976-.39-.781-2.735 1.563-1.172-2.344h-.78v3.125l-1.563.781c-.084 1.038-.161 1.712.429 2.596.743.529.743.529 1.888.677l1.434.001c.85.006 1.7.01 2.55.006a295.71 295.71 0 0 1 1.884-.001c1.73.007 3.461.01 5.193.007 1.893-.003 3.786-.001 5.68.003 3.709.007 7.419.01 11.128.008 3.048-.002 6.096-.003 9.145-.001l1.309.001 2.634.002c8.245.006 16.49.005 24.734 0 7.565-.004 15.131-.001 22.697.008 7.794.01 15.589.016 23.384.013 4.37-.001 8.741-.002 13.112.004 3.752.006 7.505.009 11.258.004l.675-.002c1.695-.003 3.39-.006 5.085-.002a944.125 944.125 0 0 0 7.279-.003c4.56.03 8.577-.375 12.955-1.758 5.984-2.388 10.415-6.895 13.109-12.696 2.472-6.003 2.398-12.144.099-18.164-2.31-5.298-6.741-9.443-12.036-11.718-4.928-1.792-10.526-1.884-15.367.16-5.494 2.507-9.106 6.094-11.367 11.754-1.251 4.154-1.312 9.314.461 13.313l.491.944c1.565 3.125 3.406 5.249 6.299 7.201 4.047 2.435 8.692 3.28 13.33 2.272 4.293-1.431 7.715-3.979 10.059-7.91 1.844-3.659 2.15-7.46 1.123-11.426-1.166-3.342-3.11-5.955-6.201-7.715-3.613-1.762-6.963-2.179-10.816-.952-3.184 1.304-5.393 3.317-6.825 6.465-.853 2.932-.704 6.122.453 8.94 1.537 2.393 3.485 3.977 6.25 4.688 2.659.309 4.613.04 6.861-1.44 1.458-1.384 2.405-2.637 2.624-4.642.022-1.841.082-3.384-1.159-4.856-1.514-1.309-2.631-1.963-4.664-1.928-1.473.409-2.02.671-2.88 1.928-.383 1.427-.587 2.297.024 3.663.757.634.757.634 2.002.927l1.099.098 1.171-1.563.391 1.563h-1.562v1.172l-.782-.391-.781.781-.781-.781-1.172.781-.391-1.562-1.562.391v-2.344l.39-1.172-1.562-.391 1.562-.781v-.781l-.781-.391 1.172-.39-.391-1.172 1.563-.391-.391-1.172 1.563.391.781-1.563.488.586c.684.586.684.586 2.246.586l1.172-.781.391.781 1.172.391v-.781h.781v1.171h1.953l-1.172 1.172 1.563.782-.391.39 1.563 1.172-.782.391v.781l1.172.391-1.172 1.562 1.954.391-1.563 1.172.781 1.171-1.562.782 1.172 1.172-1.953.39.781 1.172h-1.953l.39 1.953-.781.391-.781 1.172-1.172-.391-.391 1.563h-.781l-.781-1.563-.781 1.563-.782-1.172-.781 1.172c-.441-.977-.582-1.463-1.562-1.954l-.782 1.563-.781-1.953-1.172 1.172-.39-1.172-1.172.39-.391-1.953-1.562 1.563-.391-1.563-1.953.391c0-1.007 0-1.007-1.172-3.125l-.781-.391v-1.562l.781-1.172-.781-.781.781-.391v-.781l-1.172-.781 1.563-1.172-1.954-1.172 1.563-.781-1.563-1.954h1.172v-.781l1.172-.39-.781-1.563h1.562l-.39-2.344 2.344.782-.391-1.954 1.172.782.39-1.563 1.172.391.782-1.563 1.171.391.391-1.172c.44.44.44.44 1.953 1.172l.391-1.563.39.782 1.172.39.391-1.562.781 1.172.391-1.172h.781v1.172l.781.781 1.172-1.953.781 1.172 1.172-.782 1.172 1.172 1.172-.39v1.172h1.172l.391 1.953 1.953-1.172 1.172 3.515h1.953c-.782.782-.782.782-.782 1.954l2.344.39v.781l-1.562.782 1.953.39-1.563 1.953 1.953.391-1.953 2.344 2.344.39c-.976.538-.976.538-1.953 1.172v.782l2.344.781c-.339.886-.339.886-1.392 1.221l-.952.341 1.562 1.563-1.953.781.782 2.734h-1.563l.391 1.563h-2.735v3.125l-2.343-.391v2.344l-2.344-.781v2.734c-.879-.439-.879-.439-2.735-1.172v2.344l-3.906-1.562-.39 2.343-3.125-1.562-.782 1.172h-.781c-.899-.94-1.434-1.339-2.734-1.563l-1.172 1.953-1.953-1.953c-.923.987-1.432 1.519-2.735 1.953l-1.172-1.562-1.171 1.562c-.891-.395-.891-.395-1.807-1.391l-.928-.952-1.172 1.953-1.172-1.563-1.562 1.563c-.45-.964-.8-1.581-1.563-2.344l-1.953 2.344-1.953-1.563-.781 1.953-1.953-1.953z" fill="#0C3E2E"/><path d="M118.122 83.81c3.614 2.92 6.502 6.963 9.366 10.59a165.041 165.041 0 0 0 2.952 3.538 196.17 196.17 0 0 1 4.46 5.438 161.107 161.107 0 0 0 2.889 3.448 143.137 143.137 0 0 1 4.321 5.323 127.163 127.163 0 0 0 4.81 5.81c6.11 6.987 6.11 6.987 6.068 10.256-.182 1.636-1.196 2.876-2.431 3.904-1.434.479-2.811.675-4.296.391-1.832-1.025-3.115-2.316-4.419-3.931l-.56-.677c-.557-.675-1.11-1.354-1.662-2.033l-.935-1.136a947.456 947.456 0 0 1-3.26-3.997l-.169-.207a363.622 363.622 0 0 0-4.84-5.817 199.35 199.35 0 0 1-4.43-5.406 190.665 190.665 0 0 0-3.548-4.228 73.036 73.036 0 0 1-3.741-4.79l-.561-.59h-1.172l-.202-1.299-.287-1.704-.129-.854c-.319-1.84-.759-2.984-2.117-4.347-1.861-1.095-3.317-1.36-5.41-1.031-1.734.517-2.794 1.549-3.721 3.107-.74 3.184.048 6.497.538 9.668.148.964.294 1.929.439 2.894l.198 1.285c.41 3.612.41 3.612-.57 5.038l-.946.939c-1.325 1.366-2.435 2.647-3.418 4.272l.857.229c1.948.525 3.879 1.056 5.783 1.724l.116.943.177 1.255.165 1.236c.814 3.157 3.095 4.664 5.597 6.503l1.096.82c.755.565 1.511 1.127 2.269 1.689 1.078.799 2.153 1.603 3.227 2.409l1.011.759 1.969 1.48a237.586 237.586 0 0 0 4.295 3.172l.709.518c.603.441 1.21.875 1.818 1.31 2.241 2.161 3.127 5.487 4.157 8.361l.44 1.223c.304.849.607 1.698.909 2.548.462 1.294.932 2.584 1.402 3.875l.886 2.486.426 1.158c.982 2.806 1.637 5.662.41 8.524-1.006 2.017-2.469 3.134-4.516 4.028l-7.715-1.391c-2.501-1.598-3.322-5.515-4.272-8.155l-.565-1.493a105.754 105.754 0 0 1-2.9-8.907c-2.169-9.674-2.169-9.674-7.975-17.119-2.102-.908-4.285-1.38-6.53-1.781-4.137-.77-8.053-2.334-11.999-3.76a270.769 270.769 0 0 0-4.014-1.394l-2.514-.868-1.159-.388c-2.967-1.043-5.652-2.319-7.193-5.183-1.589-4.248-.466-8.873 1.345-12.875 5.3-10.966 14.996-24.183 26.975-28.483 4-1.291 8.659-.637 12.096 1.693zM4.761 192.258H203.59c.781 4.688.781 4.688.781 7.813h-200c0-4.297 0-4.297.39-7.813z" fill="#000"/><path d="M83.704 131.701c1.436.377 2.866.773 4.296 1.172l.837.23c13.831 3.823 13.831 3.823 16.088 7.259.926 2.001 1.274 3.999 1.435 6.183l.203 1.457c.178 2.389-.259 4.473-1.766 6.355-2.649 2.158-5.679 3.814-8.642 5.494l-2.023 1.157-1.376.786a768.205 768.205 0 0 0-6.758 3.916l-1.146.669a1457.948 1457.948 0 0 0-6.066 3.558l-1.283.753c-.808.475-1.615.952-2.422 1.43-5.793 3.4-5.793 3.4-9.346 2.941-2.454-.777-3.814-2.002-5.371-4.004-.95-2.088-1.106-4.148-.537-6.372 1.445-3.596 5.27-5.532 8.52-7.276l2.388-1.318 1.219-.672a236.485 236.485 0 0 0 5.646-3.283l1.065-.633 2.072-1.232c1.62-.962 3.246-1.917 4.87-2.872l.86-.505 1.924-1.13c-.24-1.795-.716-3.35-1.369-5.037l-.287-.749c-.3-.782-.604-1.563-.907-2.344-.305-.788-.609-1.576-.912-2.365l-.824-2.13c-.388-1.047-.388-1.047-.388-1.438zm59.333-66.926c2.034 1.667 3.439 3.258 4.264 5.776.741 2.069 1.871 2.824 3.692 3.969 2.713 1.763 5.28 3.915 6.537 6.944.147 1.294.147 1.294 0 2.344-1.007 1.007-1.452.92-2.856.952-7.003-.126-13.486-5.006-18.167-9.839l-.461-.488c1.983 4.056 5.338 7.185 8.984 9.765-1.106 2.457-3.019 3.805-5.468 4.834-4.014 1.305-8.051 1.106-11.853-.714-3.539-2.06-5.698-4.763-6.849-8.685-.883-4.057-.426-7.534 1.596-11.166 2.23-3.398 5.142-5.424 9.113-6.383 4.234-.666 7.985.186 11.468 2.691zm-7.772 8.486.39.781-.39-.781zm-21.727 14.684c2.409 2.295 2.557 5.883 2.995 9.024l.205 1.415c.142.983.282 1.965.42 2.949.212 1.503.43 3.005.648 4.507l.411 2.872a621.184 621.184 0 0 1 .532 3.742c.118 1.148.129 2.268.111 3.421l.67.308c.976.517 1.799 1.118 2.675 1.793l1.033.792 1.091.842 2.233 1.714 1.084.832a348.17 348.17 0 0 0 3.519 2.654 589.553 589.553 0 0 1 4.907 3.711l.65.494c2.705 2.076 2.705 2.076 3.232 3.656.151 1.848.188 2.757-.66 4.419-1.313 1.527-2.178 2.148-4.199 2.369-2.708-.285-4.614-1.912-6.689-3.54l-1.764-1.366a594.22 594.22 0 0 1-.941-.731c-1.728-1.337-3.467-2.659-5.205-3.983l-1.056-.805a405.869 405.869 0 0 0-6.684-4.997c-2.466-1.968-3.613-3.46-4.073-6.57l-.213-1.415-.221-1.529-.233-1.583a950.063 950.063 0 0 1-.483-3.324c-.202-1.405-.41-2.809-.62-4.212a738.449 738.449 0 0 1-.478-3.276c-.111-.765-.226-1.53-.34-2.294-1.23-8.683-1.23-8.683.226-10.842 2.037-2.115 4.605-2.208 7.217-1.047z" fill="#000"/><path d="M42.379 30.263c2.43 1.91 3.641 4.345 4.605 7.237.321 4.393-.008 7.552-2.832 11.035-2.605 2.794-5.542 4.177-9.375 4.346-3.704-.091-6.63-1.386-9.299-3.94-2.69-3.165-3.41-6.613-3.103-10.66.835-3.944 3.086-6.587 6.25-8.984 4.062-2.602 9.946-1.57 13.754.966zM27.526 33.91c-1.84 2.28-2.652 4.348-2.554 7.279.37 2.696 1.73 4.979 3.653 6.857 2.835 1.735 5.51 2.479 8.8 1.727 3.097-1.051 5.102-3.087 6.63-5.95.515-3.29.63-6.265-1.368-9.058-1.757-2.035-3.829-3.77-6.584-4-3.773-.084-5.975.36-8.577 3.145z" fill="#FFBA00"/><path d="M27.526 33.911c-1.84 2.28-2.652 4.348-2.554 7.279.37 2.696 1.73 4.979 3.653 6.857 2.835 1.735 5.51 2.479 8.8 1.727 3.097-1.051 5.102-3.087 6.63-5.95.515-3.29.63-6.265-1.368-9.058-1.757-2.035-3.829-3.77-6.584-4-3.773-.084-5.975.36-8.577 3.145z" fill="#FFBA00"/></g><defs><clipPath id="ea"><path fill="#fff" transform="translate(.5)" d="M0 0h200v200H0z"/></clipPath></defs></svg><svg fill="none" viewBox="0 0 200 200" id="serv-3" xmlns="http://www.w3.org/2000/svg"><g clip-path="url(#fa)"><path d="M44.922 48.828a38.66 38.66 0 0 1 3.515 3.125 26.43 26.43 0 0 1-.17 1.636c-.464 4.374-.88 8.77 1.96 12.445.874 1.204.987 2.442.945 3.888-.613 3.28-1.89 5.876-4.688 7.812-1.357.453-2.485.418-3.906.39-.031-2.71.001-5.405.14-8.112l.075-1.564c.038-.793.078-1.587.126-2.38.19-3.197.322-5.554-1.513-8.256-1.906-1.813-3.503-2.094-6.053-2.061-1.463.162-2.241.693-3.322 1.67-1.477 1.956-1.989 3.383-2.105 5.803l-.071 1.428-.072 1.55-.077 1.602c-.054 1.124-.106 2.248-.158 3.371-.053 1.14-.107 2.28-.163 3.42-.178 3.65-.338 7.3-.479 10.952l-.05 1.154c-.036.928-.062 1.857-.083 2.786l-.04 1.425c.166 1.223.358 1.682.987 2.69.748 1.32.748 1.32.699 2.36a28.537 28.537 0 0 1-1.107 2.617l-.461.953-.482.981c-2.091 3.809-2.091 3.809-2.965 7.946.508 1.234 1.229 2.063 2.11 3.064l1.08 1.255.555.646c.999 1.184 1.929 2.421 2.867 3.653a481.583 481.583 0 0 0 3.642 4.708c6.803 8.707 7.216 13.207 5.936 24.094l-.307 2.656c-.214 1.848-.43 3.695-.648 5.542-.277 2.36-.549 4.72-.819 7.081-.21 1.825-.422 3.651-.636 5.476-.102.87-.202 1.74-.302 2.61a908.01 908.01 0 0 1-.428 3.653l-.12 1.073c-.697 5.713-.697 5.713-2.359 7.841l-.795.611-.792.635c-2.304 1.556-4.3 1.59-7.044 1.318-2.518-.623-3.699-2.102-5.028-4.25-1.504-2.825-.813-6.192-.431-9.248l.129-1.076c.091-.764.184-1.528.278-2.292.148-1.21.293-2.42.438-3.631.41-3.439.827-6.877 1.245-10.316.256-2.108.508-4.217.76-6.326.096-.802.193-1.604.291-2.405.138-1.119.272-2.239.405-3.36l.126-.998c.23-1.978.44-3.9-.615-5.685l-.563-.659-.63-.752-.678-.784-1.404-1.677-.702-.834a98.99 98.99 0 0 1-2.581-3.275l-.94-1.232-.496-.65c-1.077-1.404-2.165-2.801-3.252-4.198l-.708-.91a1580.718 1580.718 0 0 0-4.79-6.122 583.08 583.08 0 0 0-2.71-3.42c-3.606-4.527-6.064-7.74-5.488-13.79 1.24-3.866 4.023-6.43 7.03-8.985 2.279-1.949 4.343-3.936 6.251-6.25l.754-.887c4.865-5.859 7.514-12.138 9.298-19.45 1.436-5.678 4.085-9.436 9.089-12.476 3.644-2.126 9.015-1.96 12.5.391z" fill="#000"/><path d="M71.875 89.844c2.626 1.105 4.118 2.445 5.86 4.687l.78-1.172-1.171-.39c-.05-.928-.05-.928 0-1.953l.781-.782c1.832.138 3.433.573 5.148 1.212l1.39.514 1.477.556 1.533.57c1.066.398 2.132.797 3.196 1.197 1.366.514 2.733 1.023 4.1 1.53 1.053.392 2.106.785 3.158 1.18l1.512.564c.703.261 1.405.526 2.106.79l1.211.454c.95.418.95.418 1.732 1.199.122.977.122.977 0 1.953-1.172.781-1.172.781-2.344.781-1.217 4.466-2.332 8.953-3.418 13.453l-.487 2.008c-.392 1.617-.783 3.235-1.173 4.852l8.189-3.209 2.779-1.089 4.023-1.577 1.311-.513a541.495 541.495 0 0 0 5.545-2.201l.837-.339c.701-.284 1.402-.571 2.102-.858.995-.37.995-.37 1.776-.37l-.342-1.05c-.048-1.294-.048-1.294.459-1.848l1.836-1.399c.508.983 1.012 1.968 1.514 2.954l.432.834c.867 1.71 1.496 3.335 1.961 5.196l-3.516.391-.391-1.563c-9.708 4.945-9.708 4.945-19.307 10.096-3.688 2.035-7.423 3.98-11.162 5.92l.579.523c.593.649.593.649.715 1.65-.122.952-.122.952-.903 1.733-1.953-.136-3.634-.651-5.457-1.342l-.779-.293c-.842-.318-1.683-.639-2.524-.96l-1.773-.671c-1.553-.587-3.104-1.177-4.656-1.768a1721.08 1721.08 0 0 0-3.776-1.432 2057.351 2057.351 0 0 1-10.722-4.081l-1.224-.466-1.067-.414-.902-.347c-.714-.335-.714-.335-1.495-1.116-.049-.953-.049-.953.39-1.954.684-.305.684-.305 1.514-.561 1.21-.399 1.555-.541 2.393-1.563 1.8-6.413-1.615-12.875-4.035-18.685-.262-.675-.262-.675-.262-1.066h3.906c.499 1.163.995 2.327 1.49 3.492l.421.983a71.523 71.523 0 0 1 2.386 6.463c1.461-1.86 2.505-3.924 3.613-6.006l.672-1.218.629-1.184.578-1.073c.45-1.305.334-2.088-.023-3.41-.609-.767-.609-.767-1.367-1.416-1.805-1.897-1.787-3.873-1.758-6.396z" fill="#BB8A52"/><path d="M70.44 18.997c2.453 2.012 4.301 4.56 5.341 7.566v1.171l1.035.307c4.787 1.735 9.974 6.09 12.247 10.63.264 1.963.264 1.963-.444 2.986-1.7 1.24-4.214.733-6.197.53-6.03-1.332-11.808-4.52-16.406-8.593-.447-.368-.894-.734-1.343-1.099A33.561 33.561 0 0 1 62.5 30.47c2.51 4.518 6.69 8.44 10.938 11.328-.94 2.87-3.301 4.74-5.92 6.116-4.447 1.89-9.223 2.54-13.883.906-4.91-2.08-8-5.005-10.303-9.856-1.61-4.245-1.5-8.966.075-13.182 1.966-4.367 4.99-7.352 9.346-9.329 6.193-2.343 12.297-1.235 17.688 2.545zm-9.112 9.128.391.781-.39-.78zm.391.781.39.782-.39-.782zM39.77 57.495c1.11.92 1.481 1.715 2.026 3.052a25.32 25.32 0 0 1 .096 3.1l-.014.917c-.018 1.005-.048 2.01-.082 3.014l-.034 1.072a513.035 513.035 0 0 1-.278 6.759c-.055 1.174-.106 2.348-.157 3.522l-.103 2.246-.045 1.06c-.119 2.439-.119 2.439-.555 3.31l.823.053c3.503.228 7.005.473 10.506.728l.904.066c1.84.135 3.681.276 5.52.424.595.047 1.19.093 1.784.137 7.848.585 7.848.585 9.956 2.693.998 1.664 1.109 2.965.976 4.883-.81 1.833-2.12 3.013-3.906 3.906-3.247.126-6.471-.206-9.703-.485l-1.796-.152-3.75-.321c-1.592-.137-3.184-.271-4.776-.404-1.235-.104-2.47-.21-3.705-.316l-1.76-.149c-8.859-.74-8.859-.74-10.68-2.439-1.36-1.868-1.224-3.758-1.135-5.987l.027-1.343c.04-1.604.102-3.207.169-4.81l.08-2.06c.184-4.627.389-9.253.653-13.876.043-.778.082-1.556.12-2.335l.076-1.25.057-1.03c.412-2.072 1.625-3.27 3.31-4.449 1.883-.627 3.608-.29 5.396.464zm3.98-35.62a17.866 17.866 0 0 1-1.148 3.906l-.4.977-.405.976-.246.952c-.685 1.282-1.541 1.784-2.715 2.611-1.116.867-2.096 1.835-3.079 2.846-.28.288-.28.288-.568.581-.777.799-1.55 1.6-2.321 2.405-3.73 3.886-7.325 6.917-12.897 7.134-3.564-.093-6.73-1.284-9.424-3.638-.986-1.204-1.526-2.307-1.66-3.882l.097-.806.757.318 1.197.464.788.354c2.035.827 3.337.928 5.384.096 2.94-1.541 5.14-3.867 7.358-6.294 5.423-5.933 10.688-10.719 19.282-9z" fill="#000"/><path d="M187.109 166.016c1.761 3.904 1.982 7.201.782 11.328l1.44.122c1.09.092 1.673.261 2.622.836 1.12.666 2.063.902 3.335 1.166 1.899.452 3.282.822 4.712 2.173.146 1.074.146 1.074 0 1.953-3.746 1.755-8.391 1.385-12.402.952-1.606-.167-3.022-.1-4.616.116a31.59 31.59 0 0 1-10.716-.678c-.391-.39-.391-.39-.611-1.269.263-1.283.486-1.411 1.538-2.124 1.572-.896 3.067-1.221 4.839-1.503.936-.142.936-.142 1.851-.792 1.523-.876 3.153-.855 4.883-.952.769-2.761.781-4.985.39-7.813l-.116-.88c-.085-.619-.178-1.237-.274-1.854 1.464-.781 1.464-.781 2.343-.781zm-38.281 0c.781.39.781.39 1.114 1.132 1.09 3.489 1.292 6.725.058 10.196l1.44.122c1.088.092 1.666.257 2.608.836 1.535.9 3.142 1.086 4.875 1.408 1.377.411 2.148.949 3.186 1.931.367.83.367.83.391 1.562-1.847 1.847-5.55 1.615-8.032 1.636-1.6-.023-3.17-.124-4.761-.293-1.606-.167-3.022-.1-4.616.116-3.64.397-7.143.043-10.716-.678-.229-.924-.229-.924-.391-1.953 1.171-1.809 3.12-2.165 5.078-2.734 1.564-.508 1.564-.508 3.1-1.09 1.641-.664 2.907-.999 4.713-.863.934-3.27 1.019-5.673 0-8.985v-1.562c.928-.415.928-.415 1.953-.781z" fill="#BB8A52"/><path d="M162.109 157.813c-1.091 4.248-2.571 7.57-6.25 10.156-1.421.473-2.413.545-3.906.39-1.395-1.152-2.259-1.992-2.466-3.808.179-1.858.9-2.931 2.306-4.154 2.923-2.064 6.778-2.831 10.316-2.584zm11.329-1.563c3.744.147 7.707.631 10.62 3.198 1.124 1.288 1.556 2.458 1.62 4.164-.241 1.546-.91 2.164-2.084 3.185-1.684.709-3.026.251-4.688-.391-1.868-1.349-2.811-2.53-3.833-4.638l-.691-1.389c-.574-1.445-.793-2.594-.944-4.129zm-37.891 0c3.797.149 7.797.599 10.62 3.369 1.024 1.141 1.456 1.812 1.636 3.369-.196 1.959-.673 2.477-2.1 3.809-1.684.709-3.026.251-4.687-.391-1.869-1.349-2.811-2.53-3.833-4.638l-.692-1.389c-.574-1.445-.793-2.594-.944-4.129zM200 157.813c-.984 4.057-2.651 7.794-6.25 10.156-1.421.473-2.413.545-3.906.39-1.395-1.152-2.26-1.992-2.466-3.808.179-1.858.9-2.931 2.306-4.154 2.923-2.064 6.778-2.831 10.316-2.584zm-48.437-8.594c1.395 3.336 1.98 5.948.775 9.434-.385.722-.385.722-1.556 1.503-1.426.186-2.175.085-3.467-.561-1.047-1.263-1.092-1.99-.992-3.592.405-2.313 2.523-6.784 5.24-6.784zm37.891 0c1.133 2.672 1.584 5.307 1.171 8.203-.559 1.095-1.084 1.866-1.953 2.734-1.524.133-2.618.078-3.906-.781-.739-1.478-.634-3.082-.391-4.687.812-1.733 2.933-5.469 5.079-5.469z" fill="#0C3E2E"/><path d="m187.891 126.172 1.953 1.953-.782 1.172c-.756-.269-.756-.269-1.562-.781-.293-1.026-.293-1.026-.391-1.954l.782-.39zm-3.516-3.516c1.12.224 1.508.337 2.344 1.172-.147.83-.147.83-.391 1.563h-1.172c-.683-.708-.683-.708-1.172-1.563l.391-1.172zm-2.734-3.906 1.953 1.562-.782 1.563-1.171-.391c-.464-1.001-.464-1.001-.782-1.953l.782-.781zm-16.407-10.547 2.735.781-.391 1.563c-1.855-.342-1.855-.342-2.734-.781l.39-1.563zm28.516 26.172c.558.92.815 1.36.635 2.441l-.244.684c-1.172-.391-1.172-.391-1.953-1.562v-1.172c.781-.391.781-.391 1.562-.391zm-24.219-1.563 1.172.391c.464 1.001.464 1.001.781 1.953l-1.562.391c-1.172-1.465-1.172-1.465-1.172-2.344l.781-.391zm-12.5-.39c.806.268.806.268 1.563.781.293.83.293.83.39 1.563l-1.562.39c-1.172-1.465-1.172-1.465-1.172-2.344l.781-.39zm11.328-13.672 2.344 1.172-.391 1.562c-.732-.097-.732-.097-1.562-.39-.513-.757-.513-.757-.781-1.563l.39-.781zm-29.687 0c1.855.342 1.855.342 2.734.781l-.39 1.563c-1.856-.293-1.856-.293-2.735-1.172l.391-1.172zm39.062-3.125c1.025.41 1.482.644 2.051 1.611l.293.733c-.708.268-.708.268-1.562.39-.708-.463-.708-.463-1.172-1.171.122-.855.122-.855.39-1.563zm-3.906-2.734c.952.293.952.293 1.953.781.318.83.318.83.391 1.562-1.563 0-1.563 0-2.734-.781l.39-1.562zm-3.906-2.735 2.344 1.172-.391 1.563a39.495 39.495 0 0 1-2.344-.782l-.39-.781.781-1.172zm-9.375-3.515 2.734.39v1.953l-2.734-.781v-1.562zm15.625 38.281.781.39c.244 1.197.244 1.197.391 2.344l-1.563.391-.781-2.344 1.172-.781zm-16.406-8.984h.781l1.172 2.343-1.563.781-1.172-2.343.782-.781zm20.703-3.516c.732.073.732.073 1.562.39.489 1.001.489 1.001.781 1.954l-1.562.39c-.61-.708-.61-.708-1.172-1.562l.391-1.172zm10.156-2.344c.806.684.806.684 1.563 1.563-.098.879-.098.879-.391 1.562h-1.172l-.781-2.344.781-.781zm-24.219-.781c.733.098.733.098 1.563.391.488.805.488.805.781 1.562l-1.562.781c-.611-.708-.611-.708-1.172-1.562l.39-1.172zm-12.5-.391c1.235.535 1.56.777 2.344 1.953l-1.562.782-1.563-1.953.781-.782zm9.375-3.125c1.024.41 1.482.645 2.051 1.612l.293.732c-.708.269-.708.269-1.563.391-.708-.464-.708-.464-1.171-1.172.122-.855.122-.855.39-1.563zm12.11-.781c.756.293.756.293 1.562.781.293.83.293.83.391 1.563l-1.563.39-1.172-1.953.782-.781zm-15.235-2.344 1.953 1.172-.39 1.563c-.733-.098-.733-.098-1.563-.391-.488-.806-.488-.806-.781-1.562l.781-.782zm-4.297-2.344c.928.123.928.123 1.953.391l.782 1.172-.391.781c-.928-.122-.928-.122-1.953-.39l-.781-1.172.39-.782zm4.688-5.859 1.953.391.391 1.562c-1.172.391-1.172.391-2.027.025l-.708-.415.391-1.563zm-21.875-.781 2.734.39v1.563l-2.734-.391v-1.562zm27.734 39.062h1.563l.39 2.735-1.953-.391v-2.344zm-2.734-8.593c.806.171.806.171 1.562.39l.391 1.953-1.563.391-.781-2.344.391-.39zm10.156-3.125c.806.171.806.171 1.563.39l.39 1.953-1.562.391-.781-2.344.39-.39zm-10.937-1.172c.57 1.034.781 1.521.781 2.734l-1.172.391c-1.172-1.856-1.172-1.856-1.172-2.735.781-.39.781-.39 1.563-.39zm32.421-1.172c.977.849 1.343 1.457 1.563 2.734l-1.563.391c-.57-1.034-.781-1.521-.781-2.735l.781-.39zm-23.437-1.953c.757.293.757.293 1.562.781.293.83.293.83.391 1.562l-1.562.391c-.782-1.172-.782-1.172-.635-2.026l.244-.708zm10.937-.391h1.172l.782 2.344-1.563.39-.781-2.343.39-.391zm-4.687-7.812c.757.293.757.293 1.562.781.293.83.293.83.391 1.562l-1.562.391c-.782-1.172-.782-1.172-.635-2.026l.244-.708zm-27.344-2.735 1.953 1.563-.39 1.172c-.733-.098-.733-.098-1.563-.391-.488-.806-.488-.806-.781-1.563l.781-.781zm-3.906-2.734 2.344 1.172-.391 1.562c-.952-.317-.952-.317-1.953-.781l-.391-1.172.391-.781zm25-1.172c.732.098.732.098 1.563.391.488.805.488.805.781 1.562l-1.172.781-1.563-1.562.391-1.172zm-28.906-1.172c.952.318.952.318 1.953.781l.39 1.172-.39.782c-.952-.318-.952-.318-1.953-.782l-.391-1.172.391-.781zm8.984-2.734c.789.235 1.571.497 2.344.781l.391.781-.391.781c-1.856-.341-1.856-.341-2.735-.781l.391-1.562zm-17.578-.781 2.344.39.39 1.563-.781.39c-1.025-.366-1.025-.366-1.953-.781v-1.562zm30.078-.782 2.344.782v1.562c-1.856-.342-1.856-.342-2.735-.781l.391-1.563zm-16.797-.39 2.735.781-.391 1.562c-1.855-.293-1.855-.293-2.734-1.171l.39-1.172zm-4.297-1.172 2.735.39-.391 1.563-2.344-.391v-1.562zm-9.375-1.953 2.735.39v1.563l-2.735-.391v-1.562zm17.578-1.563 2.735.391v1.562l-2.735-.39v-1.563zm-8.984-1.562 2.734.39v1.563l-2.734-.391v-1.562zm-6.25-.391v1.563l-2.734.39v-1.562c.973-.269 1.71-.391 2.734-.391zm-1.562-3.516v1.563l-2.735.39v-1.562c.973-.268 1.711-.391 2.735-.391zm21.093-.39 2.735.39v1.563l-2.735-.391v-1.562zm-16.406-.391v1.563l-2.734.39v-1.562c.962-.481 1.671-.419 2.734-.391zm11.719-.39 2.734.39v1.563l-2.734-.391v-1.562zm14.062 43.75c.806.17.806.17 1.563.39l.391 1.953-1.563.391-.781-2.344.39-.39zM156.25 112.5l2.344.781v1.563l-2.344-.391-.391-1.172.391-.781zm-9.766-7.812h2.735v1.562h-2.735v-1.562zm-5.078 0h2.735v1.562h-2.735v-1.562zm5.86 5.859h2.343l.391 1.172-.781.781c-1.026-.146-1.026-.146-1.953-.391v-1.562zm-8.985-1.172 2.344.391v1.562l-2.734-.39.39-1.563zm30.469 47.656v1.953h-1.562v-1.562c1.171-.391 1.171-.391 1.562-.391zm28.906-14.062.782 1.562-1.563.391-.391-1.563 1.172-.39zm-13.281-2.344h1.563l.39 1.172-1.953.391v-1.563zm-53.125-24.219h1.562l-.39 1.563h-1.563l.391-1.563zm-.781-3.515h1.953l-.391 1.562-1.562-.391v-1.171zm-.391-3.125h1.563v1.562l-1.563.391v-1.953zm46.875 39.843h1.172l.391 1.563-1.954-.391.391-1.172zm-46.875-42.578-.39 1.953-1.172-.39v-1.172c.781-.391.781-.391 1.562-.391z" fill="#000"/></g><defs><clipPath id="fa"><path fill="#fff" d="M0 0h200v200H0z"/></clipPath></defs></svg><svg fill="none" viewBox="0 0 201 200" id="serv-4" xmlns="http://www.w3.org/2000/svg"><path d="M49.329 105.859c1.864 1.781 3.473 3.854 3.543 6.528l-.028.894-1.216-.598c-4.461-2.165-4.461-2.165-9.33-2.136-1.74.853-2.809 1.929-3.907 3.515-.598 1.794-.758 3.663-.11 5.471 1.258 2.348 3.089 3.535 5.463 4.593l1.257.566 1.3.576 2.57 1.152 1.146.51c.874.414.874.414 1.265.804-.094 3.388-.828 6.793-1.383 10.128a73.008 73.008 0 0 0-.789 7.031l-.051.81a913.38 913.38 0 0 0-.121 1.953l.885-.237c2.773-.742 5.548-1.478 8.325-2.208 1.427-.375 2.853-.752 4.278-1.135 1.38-.37 2.76-.734 4.141-1.094a212.92 212.92 0 0 0 1.568-.418c3.773-1.024 8.067-2.136 11.833-.547 2.218 1.322 3.698 3.21 4.517 5.639.25 1.32.42 2.648.59 3.979l.162 1.212c.176 1.32.349 2.641.52 3.961l.365 2.757c.254 1.926.507 3.853.758 5.779.322 2.467.648 4.933.975 7.399l.75 5.694.36 2.728c.168 1.272.334 2.544.499 3.817l.151 1.134c.456 3.547.57 6.391-1.224 9.587-1.653 1.955-3.824 3.294-6.386 3.639-2.75.132-5.092-.468-7.203-2.289-3.036-3.267-3.239-7.609-3.786-11.83l-.258-1.919c-.179-1.336-.356-2.671-.53-4.007-.224-1.712-.453-3.423-.682-5.133-.22-1.636-.437-3.272-.654-4.907l-.126-.943c-.117-.881-.232-1.761-.347-2.642l-.2-1.517c-.14-1.264-.14-1.264-.14-2.827l-1.262.355a599.458 599.458 0 0 1-12.637 3.393c-1.008.259-2.014.522-3.02.784l-1.956.503-.895.235c-5.761 1.468-12.946 2.002-18.292-1.046-3.902-2.8-5.687-6.629-6.47-11.255-.502-3.414-.476-6.86-.484-10.302a365.18 365.18 0 0 0-.028-2.962c-.042-6.296.83-12.283 2.612-18.328l.365-1.258c.342-1.162.693-2.321 1.05-3.478l.267-.859c1.64-5.138 4.453-8.875 9.109-11.641 4.03-1.991 9.183-2.428 12.89.39z" fill="#000"/><path d="M142.688 16.797h4.687c-.265 6.949-.791 13.875-1.323 20.808-.182 2.379-.363 4.758-.543 7.138l-.19 2.472-.115 1.507-.101 1.324a42.299 42.299 0 0 0-.072 2.688c5.902-1.977 9.186-4.476 12.644-9.616 1.047-1.528 2.188-2.982 3.323-4.446l1.248-1.634c3.184-4.156 3.184-4.156 4.27-5.397h.39c.313 2.654-.597 3.903-2.197 5.957l-.685.911c-.481.64-.964 1.276-1.449 1.912-.751.991-1.487 1.992-2.219 2.998l-.726.997-.707.97a197.476 197.476 0 0 1-2.564 3.442l-.549.75c-1.534 1.967-3.307 2.956-5.53 4.035l-1.954.983-.866.425-.866.448-1.065.48c-.999.63-.999.63-1.171 1.842l-.045 1.415-.03.777c-.098 3.175.019 6.351.138 9.524l.062 1.84c.049 1.478.102 2.956.158 4.434l2.244-.772 1.446-.497c1.046-.36 2.09-.723 3.133-1.088 4.449-1.554 4.449-1.554 6.516-2.124 4.383-1.247 7.02-3.654 10.155-6.902 1.43-1.434 2.977-2.76 4.556-4.028 2.056-1.7 3.484-3.514 4.918-5.753l.664-1.01c.691-1.053 1.376-2.11 2.061-3.168.694-1.065 1.389-2.13 2.086-3.192a2303.227 2303.227 0 0 1 1.874-2.878l.513-.793c.459-.607.459-.607 1.24-.998.101 1.754-.084 2.78-.974 4.29l-.633 1.098-.688 1.155c-.471.805-.941 1.61-1.41 2.416l-.709 1.21a79.927 79.927 0 0 0-1.72 3.175c-1.935 3.74-3.773 6.315-7.147 8.922a697.97 697.97 0 0 0-2.124 1.733l-1.025.816c-1.153.94-1.153.94-2.146 1.972-3.14 3.161-6.418 4.74-10.526 6.367l-1.793.739c-1.148.474-2.299.941-3.453 1.403a251.51 251.51 0 0 0-5.416 2.265c-.861.33-.861.33-1.642.33l.077.678c.296 2.742.436 5.477.533 8.233l.05 1.384c.14 4.121.161 8.238.121 12.361l.749-.345 2.228-1.024c.853-.392 1.707-.786 2.56-1.18 1.946-.896 3.891-1.782 5.875-2.592 3.263-1.34 5.767-2.661 8.302-5.2 1.358-1.356 2.846-2.523 4.344-3.719.958-.766.958-.766 1.783-1.669l.721-.677c1.325.063 1.791.228 2.735 1.172-2.001 2.037-4.004 4.04-6.177 5.894-1.453 1.269-2.845 2.606-4.245 3.932-3.05 2.709-6.573 4.681-10.135 6.629l-2.53 1.394-1.115.611-1.189.68-.784.341c-.925.455-1.606.884-2.341 1.612-.485 1.442-.459 2.849-.456 4.36l-.034 1.337a293.414 293.414 0 0 0-.058 4.4c-.019 1.033-.04 2.067-.062 3.1a823.511 823.511 0 0 0-.115 7.371 1239.1 1239.1 0 0 1-.133 8.182c-.084 4.476-.157 8.953-.223 13.43-.077 5.213-.178 10.425-.298 15.637l-.024 1.039a741.39 741.39 0 0 1-.55 16.535l1.489.415.838.233c.873.21.873.21 1.97-.257.743.242.743.242 1.567.645l.896.431.93.462.944.457c.77.373 1.537.75 2.304 1.13v1.953c1.459.421 1.459.421 2.856-.074 1.286-.388 1.566-.175 2.734.416.476.273.951.547 1.441.83l-.781 3.515h-1.172l-.269.708c-.705 1.175-1.182 1.518-2.466 2.027-1.346.056-2.616.009-3.906-.391l-.52-.786c-.586-.859-.586-.859-1.555-.971l-1.05-.002-1.147-.022-1.197-.001c-.781-.004-1.562-.012-2.344-.026l-1.049-.001c-1.082-.173-1.361-.52-2.075-1.316-1.991.004-3.861.695-5.591 1.636-1.007.544-1.34.712-2.515.659a19.512 19.512 0 0 1-2.441-1.123v.781c-.675.199-1.351.393-2.027.586l-1.14.33c-1.073.243-1.988.304-3.083.256a573.85 573.85 0 0 0-.391-.781 35.627 35.627 0 0 0-3.003-.489l-.838-.122c-1.82-.228-3.01-.044-4.753.611-2.373.085-4.479-.659-6.64-1.563-.12-1.277-.085-2.315.39-3.515 1.686-1.298 3.729-2.178 5.884-1.905 1.148.342 1.148.342 1.929.733v-2.735c1.609-.504 2.995-.883 4.687-.781v-.781a605.608 605.608 0 0 1 3.614-1.563l1.033-.451.999-.428.917-.396c.859-.287.859-.287 2.422-.287.819-5.813 1.287-11.662 1.794-17.508.127-1.463.256-2.925.384-4.388l.725-8.289a38917.237 38917.237 0 0 1 1.754-20.061l.214-2.456.26-2.982c.2-2.28.424-4.548.728-6.816l-.903-.256c-6.609-2.409-11.473-5.991-15.347-11.82-.78-1.163-1.626-2.266-2.476-3.378l-.814-1.105a48.331 48.331 0 0 0-1.593-1.99c-2.078-2.467-2.078-2.467-2.085-4.132l.171-1.147c1.29.98 2.334 1.94 3.32 3.222a205.63 205.63 0 0 0 2.965 3.727l.645.789c.446.542.893 1.083 1.341 1.622.98 1.188 1.867 2.328 2.664 3.651 2.684 4.429 7.478 5.849 12.112 7.692.32-1.988.465-3.936.507-5.949l.023-.937c.025-1.012.047-2.025.07-3.037a5157.184 5157.184 0 0 0 .18-7.667c.043-1.89.088-3.78.133-5.671.088-3.705.174-7.41.259-11.114l-1.086-.351c-1.446-.495-2.794-1.133-4.162-1.808a3495.715 3495.715 0 0 1-6.297-3.08l-1.85-.904c-2.577-1.26-5.16-2.507-7.748-3.745l-1.047-.503-.982-.469-.927-.446a29.608 29.608 0 0 0-1.824-.763c-2.463-.953-3.699-2.3-5.327-4.337a96.236 96.236 0 0 0-1.442-1.552l-.744-.788-.768-.81-1.637-1.733-.831-.88a1112.109 1112.109 0 0 1-3.953-4.223l-.717-.768-1.627-1.746c.544-1.36 1.028-1.75 2.344-2.344l.507.547c10.371 11.65 10.371 11.65 23.84 18.884 2.713.928 5.318 2.128 7.942 3.28 1.485.648 2.976 1.28 4.468 1.915 2.583 1.099 2.583 1.099 3.477 1.546.65-5.254.65-5.254-1.339-9.92a75.014 75.014 0 0 0-2.958-2.97c-4.004-4.086-5.052-8.42-6.322-13.903a114.95 114.95 0 0 0-1.02-3.919l-.339-1.234c-.213-.772-.427-1.543-.643-2.313l-.282-1.052-.251-.913c-.149-1.036.008-1.83.264-2.839l1.171-.39.205.767c.705 2.646 1.423 5.288 2.149 7.928.269.984.534 1.97.796 2.956.379 1.421.769 2.839 1.161 4.256l.346 1.33c.783 2.77 1.732 4.364 3.937 6.2.735.822 1.446 1.657 2.156 2.5.55.668.55.668 1.36 1.016l.048-.686c.384-5.517.768-11.034 1.154-16.55.186-2.668.373-5.336.558-8.005l.54-7.727.205-2.945c.095-1.377.192-2.754.289-4.132l.084-1.223c.16-2.268.371-4.521.638-6.78z" fill="#BB8A52"/><path d="M50.5 167.188c.995 2.529 1.99 5.06 2.982 7.591l1.015 2.582c.487 1.237.973 2.475 1.458 3.712l.46 1.167.426 1.089.376.957c1.107 3.069.818 5.72-.467 8.683-1.182 2-2.98 3.017-5.078 3.906-1.32.256-2.594.264-3.936.247l-1.14.008c-1.235.007-2.468-.001-3.703-.009l-2.59.003c-1.805.001-3.61-.005-5.414-.016a761.38 761.38 0 0 0-6.926-.003c-1.781.004-3.562 0-5.343-.006-.852-.002-1.703-.002-2.554.001-1.19.002-2.381-.006-3.572-.017l-1.056.008c-2.656-.04-4.715-.71-6.744-2.461l-.528-.66-.547-.658c-1.518-2.326-1.576-4.676-1.26-7.374.799-2.773 2.18-4.347 4.616-5.837 1.555-.754 2.917-.852 4.637-.848h1.35l1.452.006 1.49.001c1.305.002 2.61.006 3.915.01 1.333.004 2.666.006 3.998.008 2.613.004 5.226.011 7.839.019l-.395-.992c-.481-1.212-.961-2.425-1.44-3.638l-.626-1.576c-.3-.754-.598-1.508-.896-2.263l-.546-1.376c-.394-1.093-.394-1.093-.394-1.874 2.915.352 2.915.352 4.224.594 4.245.64 8.327.166 12.483-.728 1.262-.256 1.262-.256 2.434-.256zm12.646-92.994c1.026.806 1.026.806 1.835 1.784 1.543 1.315 2.89 1.46 4.855 1.756 8.76 1.54 8.76 1.54 11.523 4.688.489 1.172.489 1.172.39 2.344-1.815 2.23-4.26 2.765-7.03 3.125-6.945.517-14.365.01-20.703-3.125 4.492 3.519 10.172 4.918 15.625 6.25-.496 3.713-2.586 6.905-5.495 9.242-3.794 2.685-8.026 3.689-12.645 3.038-4.223-.916-7.705-3.022-10.376-6.421-2.575-4.071-3.322-8.341-2.49-13.086.934-3.628 3.024-6.911 6.006-9.18 6.012-3.54 12.37-3.937 18.505-.415zm31.884 35.303.782.659.66.464c1.003 1.386 1.312 2.956 1.276 4.636-.405 2.452-1.945 3.661-3.89 5.056-1.82 1.042-3.699 1.951-5.59 2.857-.792.386-1.583.773-2.374 1.161l-1.57.767a185.603 185.603 0 0 0-6.212 3.199c-1.13.597-2.261 1.19-3.394 1.782l-.895.472c-.885.463-1.776.912-2.67 1.359l-.784.417c-2.035.994-3.624 1.099-5.807.486-1.844-.719-3.618-1.572-5.395-2.441a3746.551 3746.551 0 0 0-3.92-1.879 260.755 260.755 0 0 0-5.521-2.572l-1.496-.681a594.15 594.15 0 0 0-2.823-1.273c-5.045-2.309-5.045-2.309-6.382-4.557-.495-2.13-.58-3.562.464-5.469 1.928-2.368 1.928-2.368 3.939-2.754 3.58-.273 6.556 1.545 9.66 3.096a572.02 572.02 0 0 0 2.559 1.249l.85.413.845.411c.843.41 1.688.817 2.533 1.223l.868.418c.842.4 1.687.791 2.534 1.18l.765.366c1.654.744 2.69.901 4.426.38a42.562 42.562 0 0 0 2.76-1.34l.79-.41c.557-.29 1.113-.581 1.668-.873a402.72 402.72 0 0 1 2.61-1.36 285.735 285.735 0 0 0 7.585-4.054l1.103-.607c.65-.359 1.297-.726 1.938-1.103 2.556-1.408 5.367-1.878 8.109-.678z" fill="#000"/><path d="M116.906 49.219c1.172.39 1.172.39 1.772 1.43 1.975 4.398 3.261 7.864 1.762 12.626-.516.995-1.001 1.402-1.971 1.96-1.833.33-3.423.251-5.078-.611-1.389-1.693-1.652-3.378-1.563-5.518.485-3.75 2.709-7.031 5.078-9.887zm-7.812 19.141c1.185 1.243 1.516 2.016 1.758 3.71-.239 1.667-.642 2.452-1.758 3.711-3.761 1.948-7.963 1.605-11.914.39a76.377 76.377 0 0 1-2.149-.78c0-1.566.557-2.027 1.57-3.16 3.397-3.277 7.782-5.82 12.493-3.872z" fill="#0C3E2E"/><path d="M102.062 89.844h1.172c1.537 2.752 1.693 5.806.902 8.853-.767 1.92-1.797 3.409-3.636 4.428a42.332 42.332 0 0 1-5.664 1.929c-1.06.328-1.06.328-1.472 1.373-.894 1.315-1.561 1.39-3.094 1.703l-1.286.276-.984.188c.193-1.913 1.147-3.229 2.222-4.761.355-.518.71-1.037 1.063-1.556l.524-.767c1.009-1.507 1.917-3.07 2.832-4.635l4.687.781c1.128-1.475 1.128-1.475 1.628-3.082l.202-.84.196-.863a257.161 257.161 0 0 0 .708-3.027zM96.984 100v1.172l1.172-.391V100h-1.172z" fill="#000"/><path d="M143.078 0h1.172c3.047 3.386 4.461 6.818 4.505 11.322-.253 1.436-.768 2.091-1.77 3.131-1.366.683-2.807.605-4.297.39-1.638-1.01-2.103-2.123-2.539-3.93-.564-3.991 1.016-7.494 2.929-10.913zM87.22 37.5c3.38.531 6.334 2.378 8.445 5.05 1.22 1.835 1.81 3.182 1.515 5.4-.678 1.469-1.117 2.058-2.539 2.831-1.967.281-2.698.263-4.395-.781-1.779-1.702-2.932-4.185-3.071-6.646l.006-.819.004-.892.01-.92.005-.939c.005-.761.012-1.523.02-2.284zm18.358 3.906c2.675 2.02 4.786 4.593 5.86 7.813.225 2.08.371 3.734-.806 5.517-1.374.878-2.252 1.123-3.882 1.123-1.647-.674-2.339-1.552-3.125-3.125-1.152-3.456-.092-6.866 1.172-10.156l.781-1.172zM98.747 58.88c.737.628 1.028 1.15 1.362 2.057.12 1.744-.087 3.115-1.147 4.517-2.056.965-3.95.944-6.1.23-2.445-1.123-4.651-2.715-6.424-4.746-.292-.878-.292-.878-.391-1.563 4.186-1.535 8.555-2.73 12.7-.494zm60.738-36.224c-.11 3.304-1.092 6.47-3.415 8.922-1.366 1.047-2.679 1.625-4.398 1.625-1.611-.674-2.45-1.514-3.125-3.125-.075-1.689.528-2.667 1.538-3.955 2.424-2.62 5.923-3.546 9.4-3.467zm-20.313 3.907c1.139.945 1.163 1.095 1.343 2.685-.058 1.122-.222 1.726-.684 2.783-1.425 1.06-2.474 1.08-4.222.994-2.964-.56-4.954-2.728-6.862-4.927-.531-.782-.739-1.393-.903-2.317 3.746-1.427 7.948-1.45 11.328.782zM156.75 9.766c.914 2.743.973 7.047-.269 9.716-.909 1.229-1.42 1.88-2.856 2.393-1.261-.052-2.117-.28-3.247-.83-1.012-1.125-1.025-1.97-1.05-3.467.523-3.04 2.648-4.965 4.994-6.793 1.461-1.02 1.461-1.02 2.428-1.02zm-25.781 3.124c3.57.69 6.566 1.63 9.009 4.444.539 1.51.545 2.541.366 4.15-.586.977-.586.977-1.563 1.563-1.552.254-2.482.332-3.88-.39-2.311-1.75-3.271-4.176-3.722-6.98a44.77 44.77 0 0 1-.21-2.786zm40.843 83.562c2.088.982 4.098 2.196 5.641 3.939v.781l-1.855.757-1.044.425c-2.403.907-4.788 1.234-7.208.234-1.221-.635-1.221-.635-2.002-1.416-.219-1.195-.2-2.319 0-3.516 1.634-2.16 4.095-2.055 6.468-1.204zm8.376-20.28c.042 1.115.073 2.229.097 3.345l.04.946c.037 2.304-.403 3.568-1.7 5.475l-.488.756c-1.209.734-2.468.686-3.809.415-1.196-.78-1.196-.78-1.953-1.953-.037-2.312.459-3.66 1.953-5.469 3.619-3.515 3.619-3.515 5.86-3.515zm-13.282 1.172h1.172c.254.552.506 1.106.757 1.66l.426.934c1.003 2.435 1.203 4.897.233 7.367-.635.976-.635.976-1.416 1.367-2.857.181-2.857.181-3.882-.513-.943-1.498-.944-2.84-.805-4.565.758-2.333 1.954-4.37 3.515-6.25zm16.797 12.89c-.527 1.615-1.189 2.48-2.466 3.59l-.898.797c-1.975 1.464-3.62 1.7-6.011 1.473-1.086-.752-1.458-1.29-1.929-2.515-.032-1.345.319-1.904 1.148-2.954 2.762-2.148 7.095-1.921 10.156-.39zm-25-7.421c2.363 1.703 3.992 3.651 4.486 6.596.086 1.777.105 2.797-1.019 4.219-1.309.598-2.046.754-3.467.513-.899-.73-1.437-1.312-1.953-2.344-.307-3.18.082-5.757 1.562-8.594l.391-.39zm31.64-51.953.782.39a183.7 183.7 0 0 1 .097 3.15l.04.89c.039 2.238-.401 3.502-1.7 5.335-1.172.781-1.172.781-2.539.708-1.377-.32-1.715-.419-2.539-1.49-.386-1.517-.273-2.944.403-4.357 1.436-2.075 3.301-3.362 5.456-4.627zm-3.515 21.02 1.44.008c1.033.052 1.877.15 2.857.456-.985 2.112-2.322 3.767-4.273 5.053-1.408.49-2.45.583-3.931.416-.946-.6-1.127-1.053-1.513-2.1-.065-1.356.293-1.92 1.123-2.979 1.387-.937 2.656-.873 4.297-.854zm-14.062-7.349c2.881.343 4.78 1.323 6.584 3.58.447.717.447.717.716 1.962-.269 1.099-.269 1.099-1.099 2.051-1.123.61-1.123.61-2.295.66-1.953-.733-2.807-2.087-3.637-3.907-.33-1.5-.322-2.812-.269-4.346zm21.875-1.562c-.77 2.676-1.499 4.645-3.907 6.25-1.096.167-2.001.089-3.125 0-.972-1.458-.993-2.182-.781-3.907 2.284-2.414 4.683-2.453 7.813-2.343zm-16.407-7.422c1.979 1.484 3.626 2.973 4.042 5.516.049 1.14-.01 2.061-.55 3.078-1.214.626-2.156.557-3.492.39-1.26-1.092-1.392-2.295-1.562-3.906.204-1.24.204-1.24.537-2.466l.327-1.24c.308-.981.308-.981.698-1.372z" fill="#0C3E2E"/><path d="M99.328 87.89h.781c.586 1.171.577 2.314.684 3.614l.14 1.544c-.046 1.619-.326 2.483-1.214 3.827-1.66.553-2.625.076-4.297-.39.597-1.992 1.45-3.773 2.392-5.616l.441-.871 1.073-2.107zm.781 16.016c-.197 2.434-1.299 4.475-2.343 6.641-2.984-1.978-2.984-1.978-3.54-3.418.024-.879.024-.879.415-1.66a33.424 33.424 0 0 1 2.319-.83l1.28-.418c1.088-.315 1.088-.315 1.869-.315zm42.579 91.797.39.781c-.342 1.026-.342 1.026-1.172 1.953-1.187.175-2.324.113-3.515 0l-.782-1.953c1.851-1.128 2.969-1.319 5.079-.781zm-31.641 0 .391.781c-.342 1.026-.342 1.026-1.172 1.953-1.188.175-2.324.113-3.516 0l-.781-1.953c1.851-1.128 2.968-1.319 5.078-.781zm10.937 1.172c.977.781.977.781 1.563 1.562-.61.806-.61.806-1.563 1.563-1.314-.068-2.334-.191-3.515-.781-.244-1.001-.244-1.001-.391-1.953 1.245-.623 2.555-.597 3.906-.391zm-15.625-4.297-.39 2.735c-1.319-.123-1.319-.123-2.735-.391-.781-1.172-.781-1.172-.781-2.344 1.473-1.019 2.314-.651 3.906 0zM93.86 121.094l1.171.39c.13 1.676.258 3.352.39 5.078l-1.952-.39c-.384-1.583-.423-3.062-.39-4.688l.78-.39zm70.41 73.364 1.074.464-.391 2.734-2.734-.39-.781-1.953c1.064-1.065 1.322-1.232 2.832-.855zm3.418-1.489 1.953.39.39 2.344-2.343.391c-.44-.904-.44-.904-.782-1.953l.782-1.172zm-79.298-68.75v1.953l-1.953.39c.147-.952.147-.952.391-1.953.781-.39.781-.39 1.563-.39z" fill="#000"/></svg></svg>